<svg xmlns="http://www.w3.org/2000/svg" width="20" height="20"><path d="M0 0 C2.61580479 0.3269756 4.64078137 0.82039068 7 2 C7.78375 1.9175 8.5675 1.835 9.375 1.75 C12 2 12 2 14.3125 4.375 C16 7 16 7 16 9 C13 9 10 9 7 9 C7.33 7.68 7.66 6.36 8 5 C7.67 5.33 7.34 5.66 7 6 C7 7.32 7 8.64 7 10 C8.32 10 9.64 10 11 10 C13.96189868 10.522688 14.81036236 10.81036236 17 13 C16.67028521 16.29714793 16.3773161 17.6226839 14 20 C8.51451234 20.13060685 5.57047235 17.40020393 1.7734375 13.8359375 C-0.32258958 11.66604162 -1.8859604 9.82223364 -3 7 C-2.76271993 3.5989856 -2.430466 2.430466 0 0 Z M1 2 C0.34 3.32 -0.32 4.64 -1 6 C0.98 8.97 0.98 8.97 3 12 C3.15811388 8.94729537 3.15811388 8.94729537 2 6 C2.99 5.67 3.98 5.34 5 5 C4.34 4.01 3.68 3.02 3 2 C2.34 2 1.68 2 1 2 Z M12 12 C11.67 12.99 11.34 13.98 11 15 C10.01 15.33 9.02 15.66 8 16 C10.475 16.99 10.475 16.99 13 18 C13.66 16.68 14.32 15.36 15 14 C14.01 13.34 13.02 12.68 12 12 Z M5 13 C5.33 13.66 5.66 14.32 6 15 C6.66 14.67 7.32 14.34 8 14 C7.01 13.67 6.02 13.34 5 13 Z " fill="#EF8829" transform="translate(3,0)"></path></svg>