<svg xmlns="http://www.w3.org/2000/svg" width="30" height="20"><path d="M0 0 C1.25554688 -0.00128906 2.51109375 -0.00257812 3.8046875 -0.00390625 C4.46178711 -0.00181152 5.11888672 0.0002832 5.79589844 0.00244141 C7.80411335 0.00779016 9.81210459 0.00249559 11.8203125 -0.00390625 C13.07585938 -0.00261719 14.33140625 -0.00132813 15.625 0 C16.78644531 0.00112793 17.94789062 0.00225586 19.14453125 0.00341797 C21.8125 0.1328125 21.8125 0.1328125 22.8125 1.1328125 C22.9108721 2.46324875 22.94328592 3.79874594 22.9453125 5.1328125 C22.94724609 6.339375 22.94724609 6.339375 22.94921875 7.5703125 C22.94535156 8.4159375 22.94148438 9.2615625 22.9375 10.1328125 C22.94330078 11.40125 22.94330078 11.40125 22.94921875 12.6953125 C22.94792969 13.4996875 22.94664063 14.3040625 22.9453125 15.1328125 C22.94418457 15.8753125 22.94305664 16.6178125 22.94189453 17.3828125 C22.8125 19.1328125 22.8125 19.1328125 21.8125 20.1328125 C19.7519469 20.23274782 17.6879741 20.26362156 15.625 20.265625 C14.36945312 20.26691406 13.11390625 20.26820312 11.8203125 20.26953125 C11.16321289 20.26743652 10.50611328 20.2653418 9.82910156 20.26318359 C7.82088665 20.25783484 5.81289541 20.26312941 3.8046875 20.26953125 C2.54914062 20.26824219 1.29359375 20.26695313 0 20.265625 C-1.16144531 20.26449707 -2.32289063 20.26336914 -3.51953125 20.26220703 C-6.1875 20.1328125 -6.1875 20.1328125 -7.1875 19.1328125 C-7.2858721 17.80237625 -7.31828592 16.46687906 -7.3203125 15.1328125 C-7.32160156 14.3284375 -7.32289063 13.5240625 -7.32421875 12.6953125 C-7.32035156 11.8496875 -7.31648437 11.0040625 -7.3125 10.1328125 C-7.31636719 9.2871875 -7.32023438 8.4415625 -7.32421875 7.5703125 C-7.32292969 6.7659375 -7.32164062 5.9615625 -7.3203125 5.1328125 C-7.31918457 4.3903125 -7.31805664 3.6478125 -7.31689453 2.8828125 C-7.01396256 -1.21419957 -3.30525734 0.00320988 0 0 Z M-3.1875 2.1328125 C1.65924057 7.8265484 1.65924057 7.8265484 6.8125 13.1328125 C10.23777887 11.65932542 12.46205058 9.72373404 15.0625 7.0703125 C15.76890625 6.35746094 16.4753125 5.64460937 17.203125 4.91015625 C18.92436865 3.40888746 18.92436865 3.40888746 18.8125 2.1328125 C11.5525 2.1328125 4.2925 2.1328125 -3.1875 2.1328125 Z M-5.1875 4.1328125 C-5.1875 8.0928125 -5.1875 12.0528125 -5.1875 16.1328125 C-3.2075 14.4828125 -1.2275 12.8328125 0.8125 11.1328125 C-0.72623177 7.41421071 -1.66261388 6.77647709 -5.1875 4.1328125 Z M17.25 6.6328125 C16.0434375 7.8703125 16.0434375 7.8703125 14.8125 9.1328125 C16.35123177 12.85141429 17.28761388 13.48914791 20.8125 16.1328125 C20.8125 12.1728125 20.8125 8.2128125 20.8125 4.1328125 C19.33513018 4.01642519 19.33513018 4.01642519 17.25 6.6328125 Z M1.8125 12.1328125 C0.1625 14.1128125 -1.4875 16.0928125 -3.1875 18.1328125 C4.0725 18.1328125 11.3325 18.1328125 18.8125 18.1328125 C17.1625 16.1528125 15.5125 14.1728125 13.8125 12.1328125 C13.255625 12.4834375 12.69875 12.8340625 12.125 13.1953125 C8.36931863 14.71788603 5.5292488 13.37172877 1.8125 12.1328125 Z " fill="#EF8829" transform="translate(7.1875,-0.1328125)"></path></svg>