<svg xmlns="http://www.w3.org/2000/svg" width="20" height="24"><path d="M0 0 C3.20711894 1.98841374 4.54278487 3.31691822 5.5390625 6.984375 C6.12973619 13.15363356 3.51385747 17.1697681 0.1171875 22.12890625 C-2 24 -2 24 -5 24.5546875 C-8 24 -8 24 -10.1171875 22.12890625 C-13.51385747 17.1697681 -16.12973619 13.15363356 -15.5390625 6.984375 C-13.44680037 -0.71757544 -6.80421 -1.34968756 0 0 Z M-10.9375 4.0625 C-13.28394483 6.85530089 -13.28394483 6.85530089 -13.1875 10.3125 C-11.67105302 15.02146693 -9.17432415 18.26264588 -6 22 C-1.19600176 19.97347398 0.98839152 16.72216568 3 12 C3.06464381 8.0567276 2.91691981 6.05275979 0.3125 3.0625 C-4.19964918 0.98935038 -6.87080376 1.20716009 -10.9375 4.0625 Z " fill="#EF8829" transform="translate(15,0)"></path><path d="M0 0 C3.25696479 0.41755959 4.63443291 0.63443291 7 3 C6.9375 5.5 6.9375 5.5 6 8 C3.4375 9.3125 3.4375 9.3125 1 10 C-0.32 8.68 -1.64 7.36 -3 6 C-1.125 1.125 -1.125 1.125 0 0 Z M0 3 C0.33 4.32 0.66 5.64 1 7 C1.99 7 2.98 7 4 7 C4 5.68 4 4.36 4 3 C2.68 3 1.36 3 0 3 Z " fill="#EF8829" transform="translate(8,4)"></path></svg>